<svg xmlns="http://www.w3.org/2000/svg" viewBox="0 0 24 24"><path fill="#eceff1" d="M23.961 9.106a.75.75 0 0 0-.598-.503l-7.378-1.127L12.678.432c-.247-.526-1.11-.526-1.357 0L8.015 7.476.637 8.603a.75.75 0 0 0-.424 1.265l5.36 5.494-1.267 7.767a.751.751 0 0 0 1.103.777L12 20.264l6.59 3.643a.748.748 0 0 0 1.103-.778l-1.267-7.767 5.36-5.494a.75.75 0 0 0 .175-.762z"/><path fill="#ffc107" d="M11.913.268a.753.753 0 0 0-.842.413l-3.229 6.88L.637 8.662a.75.75 0 0 0-.424 1.265l5.235 5.366-1.237 7.586a.751.751 0 0 0 1.103.777l6.798-3.758a.749.749 0 0 0 .387-.656V1a.748.748 0 0 0-.586-.732z"/></svg>